<?xml version="1.0" encoding="UTF-8" standalone="no"?>
<!DOCTYPE svg PUBLIC "-//W3C//DTD SVG 1.1//EN" "http://www.w3.org/Graphics/SVG/1.1/DTD/svg11.dtd">
<svg width="100%" height="100%" viewBox="0 0 60 80" version="1.1" xmlns="http://www.w3.org/2000/svg" xmlns:xlink="http://www.w3.org/1999/xlink" xml:space="preserve" xmlns:serif="http://www.serif.com/" style="fill-rule:evenodd;clip-rule:evenodd;stroke-linejoin:round;stroke-miterlimit:2;">
    <g transform="matrix(1,0,0,1,-53,-2.84217e-14)">
        <g id="満室" transform="matrix(0.9375,0,0,1,3.3125,0)">
            <rect x="53" y="0" width="64" height="80" style="fill:none;"/>
            <clipPath id="_clip1">
                <rect x="53" y="0" width="64" height="80"/>
            </clipPath>
            <g clip-path="url(#_clip1)">
                <g transform="matrix(1.02366,0,0,0.96748,-56.5914,-64.3902)">
                    <rect x="107.059" y="66.555" width="62.521" height="82.689" style="fill:rgb(255,27,0);fill-opacity:0.25;"/>
                </g>
                <g transform="matrix(0.323641,0,0,0.303414,4.04005,-4.93829)">
                    <text x="169.126px" y="211.794px" style="font-family:'MidashiGoPr6N-MB31', 'A-OTF Midashi Go MB31 Pr6N', sans-serif;font-weight:600;font-size:56.311px;fill:rgb(230,0,19);">使用中</text>
                </g>
                <g transform="matrix(0.194896,0,0,0.182715,29.1762,33.2649)">
                    <text x="169.126px" y="211.794px" style="font-family:'MidashiGoPr6N-MB31', 'A-OTF Midashi Go MB31 Pr6N', sans-serif;font-weight:600;font-size:56.311px;fill:rgb(230,0,19);">Occupied</text>
                </g>
                <g transform="matrix(0.0656129,0,0,0.0615121,68.7009,9.63626)">
                    <path d="M0,459.214L327.252,459.214L327.252,369.487C411.71,358.924 512,226.969 512,142.524L0,142.524L0,459.214Z" style="fill:rgb(230,0,19);fill-rule:nonzero;"/>
                </g>
                <g transform="matrix(0.0656129,0,0,0.0615121,68.7009,9.80642)">
                    <path d="M477.311,52.786L0,52.786L0,116.117L512,116.117L512,87.462C512,68.319 496.465,52.786 477.311,52.786Z" style="fill:rgb(230,0,19);fill-rule:nonzero;"/>
                </g>
            </g>
        </g>
    </g>
</svg>
