<?xml version="1.0" encoding="UTF-8" standalone="no"?>
<!DOCTYPE svg PUBLIC "-//W3C//DTD SVG 1.1//EN" "http://www.w3.org/Graphics/SVG/1.1/DTD/svg11.dtd">
<svg width="100%" height="100%" viewBox="0 0 60 80" version="1.1" xmlns="http://www.w3.org/2000/svg" xmlns:xlink="http://www.w3.org/1999/xlink" xml:space="preserve" xmlns:serif="http://www.serif.com/" style="fill-rule:evenodd;clip-rule:evenodd;stroke-linejoin:round;stroke-miterlimit:2;">
    <g transform="matrix(1,0,0,1,-139.837,-2.84217e-14)">
        <g id="空室" transform="matrix(0.959677,0,0,0.96748,-19.7758,-205.874)">
            <rect x="166.319" y="212.794" width="62.521" height="82.689" style="fill:none;"/>
            <clipPath id="_clip1">
                <rect x="166.319" y="212.794" width="62.521" height="82.689"/>
            </clipPath>
            <g clip-path="url(#_clip1)">
                <g transform="matrix(1,0,0,1,59.2605,146.24)">
                    <rect x="107.059" y="66.555" width="62.521" height="82.689" style="fill:rgb(0,153,255);fill-opacity:0.25;"/>
                </g>
                <g transform="matrix(0.316162,0,0,0.313613,126.341,207.69)">
                    <text x="169.126px" y="211.794px" style="font-family:'MidashiGoPr6N-MB31', 'A-OTF Midashi Go MB31 Pr6N', sans-serif;font-weight:600;font-size:56.311px;fill:rgb(4,87,167);">空室</text>
                </g>
                <g transform="matrix(0.190392,0,0,0.188857,148.059,247.177)">
                    <text x="169.126px" y="211.794px" style="font-family:'MidashiGoPr6N-MB31', 'A-OTF Midashi Go MB31 Pr6N', sans-serif;font-weight:600;font-size:56.311px;fill:rgb(4,87,167);">Vacant</text>
                </g>
                <g transform="matrix(0.0640967,0,0,0.0635798,181.171,222.755)">
                    <path d="M0,459.214L327.252,459.214L327.252,369.487C411.71,358.924 512,226.969 512,142.524L0,142.524L0,459.214Z" style="fill:rgb(4,87,167);fill-rule:nonzero;"/>
                </g>
                <g transform="matrix(0.0640967,0,0,0.0635798,181.171,222.931)">
                    <path d="M477.311,52.786L0,52.786L0,116.117L512,116.117L512,87.462C512,68.319 496.465,52.786 477.311,52.786Z" style="fill:rgb(4,87,167);fill-rule:nonzero;"/>
                </g>
            </g>
        </g>
    </g>
</svg>
